<?xml version="1.0" standalone="no"?>
<!DOCTYPE svg PUBLIC "-//W3C//DTD SVG 20010904//EN"
 "http://www.w3.org/TR/2001/REC-SVG-20010904/DTD/svg10.dtd">
<svg version="1.0" xmlns="http://www.w3.org/2000/svg"
 width="512.000000pt" height="512.000000pt" viewBox="0 0 512.000000 512.000000"
 preserveAspectRatio="xMidYMid meet">
<metadata>
Created by potrace 1.14, written by Peter Selinger 2001-2017
</metadata>
<g transform="translate(0.000000,512.000000) scale(0.100000,-0.100000)"
fill="#000000" stroke="none">
<path d="M753 5105 c-285 -52 -527 -233 -654 -490 -27 -55 -59 -138 -72 -185
l-22 -85 0 -1785 0 -1785 22 -85 c31 -116 109 -270 180 -355 125 -148 299
-259 483 -308 l85 -22 1785 0 1785 0 85 22 c184 49 358 160 483 308 71 85 149
239 180 355 l22 85 0 1785 0 1785 -22 85 c-49 184 -160 358 -308 483 -82 69
-236 148 -350 180 l-80 22 -1765 2 c-1417 1 -1779 -1 -1837 -12z m3329 -1663
c126 -51 231 -160 275 -284 17 -49 18 -95 18 -598 0 -503 -1 -549 -18 -598
-44 -124 -149 -233 -275 -284 l-57 -23 -925 -2 c-563 -1 -910 2 -888 8 62 14
157 67 208 115 56 52 113 155 130 234 8 39 11 205 8 585 l-3 530 -37 77 c-20
43 -57 100 -83 126 -49 53 -140 107 -214 128 -38 10 113 12 879 11 l925 -2 57
-23z m-2560 -559 l128 -128 128 128 c70 70 134 127 142 127 19 0 180 -160 180
-180 0 -8 -57 -72 -127 -142 l-128 -128 128 -128 c70 -70 127 -134 127 -142 0
-19 -160 -180 -180 -180 -8 0 -72 57 -142 127 l-128 128 -128 -128 c-70 -70
-134 -127 -142 -127 -19 0 -180 160 -180 180 0 8 57 72 127 142 l128 128 -128
128 c-70 70 -127 134 -127 142 0 19 160 180 180 180 8 0 72 -57 142 -127z"/>
<path d="M3390 3009 c-133 -22 -269 -126 -328 -250 -132 -277 37 -600 341
-649 297 -47 564 220 517 518 -40 252 -278 424 -530 381z m174 -293 c116 -68
115 -248 -2 -314 -85 -48 -200 -19 -248 64 -50 86 -22 199 62 250 54 33 132
33 188 0z"/>
</g>
</svg>
